<mxfile host="app.diagrams.net" modified="2022-08-05T01:58:20.704Z" agent="5.0 (Windows NT 10.0; Win64; x64) AppleWebKit/537.36 (KHTML, like Gecko) Chrome/104.0.0.0 Safari/537.36" etag="nrVQRzEQ_3I810Nr-GV2" version="20.2.3" type="github">
  <diagram id="mf8YXXkEPeBH6LOqcUiT" name="Page-1">
    <mxGraphModel dx="1422" dy="705" grid="1" gridSize="10" guides="1" tooltips="1" connect="1" arrows="1" fold="1" page="1" pageScale="1" pageWidth="850" pageHeight="1100" math="0" shadow="0">
      <root>
        <mxCell id="0" />
        <mxCell id="1" parent="0" />
        <mxCell id="GIFYre839O3EBgN5tSol-9" style="edgeStyle=orthogonalEdgeStyle;rounded=0;orthogonalLoop=1;jettySize=auto;html=1;entryX=0.5;entryY=0;entryDx=0;entryDy=0;" edge="1" parent="1" source="GIFYre839O3EBgN5tSol-1" target="GIFYre839O3EBgN5tSol-8">
          <mxGeometry relative="1" as="geometry" />
        </mxCell>
        <mxCell id="GIFYre839O3EBgN5tSol-1" value="view（）接口" style="rounded=0;whiteSpace=wrap;html=1;fillColor=#dae8fc;strokeColor=#6c8ebf;" vertex="1" parent="1">
          <mxGeometry x="330" y="20" width="120" height="60" as="geometry" />
        </mxCell>
        <mxCell id="GIFYre839O3EBgN5tSol-13" style="edgeStyle=orthogonalEdgeStyle;rounded=0;orthogonalLoop=1;jettySize=auto;html=1;entryX=1;entryY=0.75;entryDx=0;entryDy=0;" edge="1" parent="1" source="GIFYre839O3EBgN5tSol-2" target="GIFYre839O3EBgN5tSol-11">
          <mxGeometry relative="1" as="geometry">
            <Array as="points">
              <mxPoint x="620" y="480" />
              <mxPoint x="450" y="480" />
            </Array>
          </mxGeometry>
        </mxCell>
        <mxCell id="GIFYre839O3EBgN5tSol-2" value="普通list_share_dir()方法，和之前逻辑保持不变；" style="rounded=0;whiteSpace=wrap;html=1;fillColor=#dae8fc;strokeColor=#6c8ebf;" vertex="1" parent="1">
          <mxGeometry x="540" y="270" width="120" height="60" as="geometry" />
        </mxCell>
        <mxCell id="GIFYre839O3EBgN5tSol-6" style="edgeStyle=orthogonalEdgeStyle;rounded=0;orthogonalLoop=1;jettySize=auto;html=1;entryX=1;entryY=0.5;entryDx=0;entryDy=0;" edge="1" parent="1" source="GIFYre839O3EBgN5tSol-3" target="GIFYre839O3EBgN5tSol-5">
          <mxGeometry relative="1" as="geometry" />
        </mxCell>
        <mxCell id="GIFYre839O3EBgN5tSol-7" style="edgeStyle=orthogonalEdgeStyle;rounded=0;orthogonalLoop=1;jettySize=auto;html=1;entryX=0;entryY=0.5;entryDx=0;entryDy=0;" edge="1" parent="1" source="GIFYre839O3EBgN5tSol-3" target="GIFYre839O3EBgN5tSol-2">
          <mxGeometry relative="1" as="geometry" />
        </mxCell>
        <mxCell id="GIFYre839O3EBgN5tSol-3" value="根据查询到的文件夹名前缀是否为CIDC-U" style="rhombus;whiteSpace=wrap;html=1;fillColor=#dae8fc;strokeColor=#6c8ebf;" vertex="1" parent="1">
          <mxGeometry x="312.5" y="230" width="155" height="140" as="geometry" />
        </mxCell>
        <mxCell id="GIFYre839O3EBgN5tSol-12" style="edgeStyle=orthogonalEdgeStyle;rounded=0;orthogonalLoop=1;jettySize=auto;html=1;exitX=0.5;exitY=1;exitDx=0;exitDy=0;entryX=0;entryY=0.75;entryDx=0;entryDy=0;" edge="1" parent="1" source="GIFYre839O3EBgN5tSol-5" target="GIFYre839O3EBgN5tSol-11">
          <mxGeometry relative="1" as="geometry">
            <Array as="points">
              <mxPoint x="200" y="480" />
              <mxPoint x="330" y="480" />
            </Array>
          </mxGeometry>
        </mxCell>
        <mxCell id="GIFYre839O3EBgN5tSol-5" value="重载list_share_dir()方法;跳过文件检查，提升运行效率" style="rounded=0;whiteSpace=wrap;html=1;fillColor=#dae8fc;strokeColor=#6c8ebf;" vertex="1" parent="1">
          <mxGeometry x="140" y="270" width="120" height="60" as="geometry" />
        </mxCell>
        <mxCell id="GIFYre839O3EBgN5tSol-10" style="edgeStyle=orthogonalEdgeStyle;rounded=0;orthogonalLoop=1;jettySize=auto;html=1;entryX=0.5;entryY=0;entryDx=0;entryDy=0;" edge="1" parent="1" source="GIFYre839O3EBgN5tSol-8" target="GIFYre839O3EBgN5tSol-3">
          <mxGeometry relative="1" as="geometry" />
        </mxCell>
        <mxCell id="GIFYre839O3EBgN5tSol-8" value="通过卷名查询数据库所属共享文件夹" style="rounded=0;whiteSpace=wrap;html=1;fillColor=#dae8fc;strokeColor=#6c8ebf;" vertex="1" parent="1">
          <mxGeometry x="330" y="120" width="120" height="60" as="geometry" />
        </mxCell>
        <mxCell id="GIFYre839O3EBgN5tSol-11" value="Return" style="rounded=0;whiteSpace=wrap;html=1;fillColor=#dae8fc;strokeColor=#6c8ebf;" vertex="1" parent="1">
          <mxGeometry x="330" y="450" width="120" height="60" as="geometry" />
        </mxCell>
      </root>
    </mxGraphModel>
  </diagram>
</mxfile>
